<svg width="378" height="319" viewBox="0 0 378 319" fill="none" xmlns="http://www.w3.org/2000/svg">
<path d="M93.6154 44.3682L101.75 1.37012H114.16L100.754 61.7998H88.2199L78.3835 21.375L68.5471 61.7998H56.0129L42.6071 1.37012H55.0168L63.1931 44.2852L73.154 1.37012H83.696L93.6154 44.3682ZM153.215 49.3486H131.384L127.234 61.7998H113.994L136.489 1.37012H148.027L170.647 61.7998H157.407L153.215 49.3486ZM134.746 39.2632H149.853L142.258 16.6436L134.746 39.2632ZM216.799 11.4556H198.288V61.7998H185.837V11.4556H167.575V1.37012H216.799V11.4556ZM270.215 41.6704C269.744 48.1727 267.337 53.2915 262.993 57.0269C258.676 60.7622 252.977 62.6299 245.893 62.6299C238.146 62.6299 232.045 60.029 227.59 54.8271C223.163 49.5977 220.949 42.4313 220.949 33.3281V29.6343C220.949 23.8237 221.973 18.7049 224.021 14.2778C226.068 9.85075 228.987 6.46126 232.778 4.10938C236.596 1.72982 241.023 0.540039 246.059 0.540039C253.032 0.540039 258.649 2.40771 262.91 6.14307C267.171 9.87842 269.633 15.1217 270.298 21.873H257.846C257.542 17.9717 256.449 15.1494 254.568 13.4062C252.714 11.6354 249.878 10.75 246.059 10.75C241.909 10.75 238.796 12.2441 236.721 15.2324C234.673 18.193 233.622 22.8 233.567 29.0532V33.6187C233.567 40.1486 234.549 44.9215 236.513 47.9375C238.506 50.9535 241.632 52.4614 245.893 52.4614C249.739 52.4614 252.603 51.5898 254.485 49.8467C256.394 48.0758 257.487 45.3504 257.763 41.6704H270.215ZM327.573 61.7998H315.122V35.9014H290.842V61.7998H278.391V1.37012H290.842V25.8574H315.122V1.37012H327.573V61.7998ZM103.244 92.5967L115.82 65.3701H129.433L109.594 103.886V125.8H96.9357V103.886L77.0969 65.3701H90.7517L103.244 92.5967ZM183.347 96.9546C183.347 102.903 182.295 108.119 180.193 112.602C178.09 117.084 175.074 120.543 171.145 122.978C167.243 125.412 162.761 126.63 157.697 126.63C152.689 126.63 148.221 125.426 144.292 123.019C140.363 120.612 137.319 117.181 135.161 112.726C133.003 108.244 131.91 103.097 131.882 97.2866V94.2983C131.882 88.3494 132.947 83.12 135.078 78.6099C137.236 74.0721 140.266 70.5996 144.167 68.1924C148.096 65.7575 152.579 64.54 157.614 64.54C162.65 64.54 167.119 65.7575 171.02 68.1924C174.949 70.5996 177.979 74.0721 180.11 78.6099C182.268 83.12 183.347 88.3356 183.347 94.2568V96.9546ZM170.73 94.2153C170.73 87.8791 169.595 83.0646 167.326 79.772C165.057 76.4793 161.82 74.833 157.614 74.833C153.436 74.833 150.213 76.4655 147.944 79.7305C145.675 82.9678 144.527 87.7269 144.499 94.0078V96.9546C144.499 103.125 145.634 107.912 147.903 111.315C150.171 114.718 153.436 116.42 157.697 116.42C161.876 116.42 165.085 114.787 167.326 111.522C169.568 108.23 170.702 103.443 170.73 97.1621V94.2153ZM238.132 65.3701V105.172C238.132 111.785 236.057 117.015 231.906 120.861C227.784 124.707 222.139 126.63 214.973 126.63C207.917 126.63 202.314 124.762 198.164 121.027C194.013 117.292 191.897 112.159 191.814 105.629V65.3701H204.265V105.255C204.265 109.212 205.206 112.104 207.087 113.93C208.996 115.728 211.625 116.627 214.973 116.627C221.973 116.627 225.529 112.947 225.639 105.587V65.3701H238.132ZM270.713 103.678H260.793V125.8H248.342V65.3701H270.796C277.934 65.3701 283.44 66.9611 287.314 70.1431C291.188 73.325 293.125 77.8213 293.125 83.6318C293.125 87.7546 292.225 91.1994 290.427 93.9663C288.656 96.7056 285.958 98.8914 282.334 100.524L295.407 125.219V125.8H282.043L270.713 103.678ZM260.793 93.5928H270.837C273.964 93.5928 276.385 92.8042 278.1 91.2271C279.816 89.6222 280.674 87.4225 280.674 84.6279C280.674 81.778 279.857 79.5368 278.225 77.9043C276.62 76.2718 274.144 75.4556 270.796 75.4556H260.793V93.5928ZM66.3889 241.349H44.5578L40.4074 253.8H27.1677L49.6628 193.37H61.2009L83.8205 253.8H70.5808L66.3889 241.349ZM47.9196 231.263H63.0271L55.4318 208.644L47.9196 231.263ZM138.606 253.8H126.154L101.916 214.039V253.8H89.465V193.37H101.916L126.196 233.214V193.37H138.606V253.8ZM162.719 253.8H150.268V193.37H162.719V253.8ZM190.569 193.37L206.091 237.198L221.53 193.37H237.883V253.8H225.39V237.281L226.635 208.768L210.324 253.8H201.775L185.505 208.81L186.75 237.281V253.8H174.299V193.37H190.569ZM283.62 241.349H261.789L257.639 253.8H244.399L266.894 193.37H278.432L301.052 253.8H287.812L283.62 241.349ZM265.151 231.263H280.258L272.663 208.644L265.151 231.263ZM319.148 243.797H345.586V253.8H306.696V193.37H319.148V243.797ZM93.4494 288.955C93.4494 294.903 92.398 300.119 90.2951 304.602C88.1923 309.084 85.1763 312.543 81.2473 314.978C77.3459 317.412 72.8635 318.63 67.8 318.63C62.7919 318.63 58.3233 317.426 54.3942 315.019C50.4652 312.612 47.4216 309.181 45.2634 304.726C43.1052 300.244 42.0122 295.097 41.9846 289.287V286.298C41.9846 280.349 43.0498 275.12 45.1804 270.61C47.3386 266.072 50.3684 262.6 54.2697 260.192C58.1988 257.757 62.6812 256.54 67.717 256.54C72.7528 256.54 77.2214 257.757 81.1228 260.192C85.0518 262.6 88.0816 266.072 90.2121 270.61C92.3703 275.12 93.4494 280.336 93.4494 286.257V288.955ZM80.8322 286.215C80.8322 279.879 79.6978 275.065 77.4289 271.772C75.16 268.479 71.9227 266.833 67.717 266.833C63.5389 266.833 60.3155 268.465 58.0466 271.73C55.7777 274.968 54.6294 279.727 54.6018 286.008V288.955C54.6018 295.125 55.7362 299.912 58.0051 303.315C60.274 306.718 63.5389 308.42 67.8 308.42C71.9781 308.42 75.1877 306.787 77.4289 303.522C79.6701 300.23 80.8046 295.443 80.8322 289.162V286.215ZM151.638 317.8H139.187L114.948 278.039V317.8H102.497V257.37H114.948L139.228 297.214V257.37H151.638V317.8ZM174.963 307.797H201.401V317.8H162.512V257.37H174.963V307.797ZM221.821 317.8H209.37V257.37H221.821V317.8ZM282.541 317.8H270.09L245.852 278.039V317.8H233.401V257.37H245.852L270.132 297.214V257.37H282.541V317.8ZM329.773 291.611H305.866V307.797H333.923V317.8H293.415V257.37H333.84V267.456H305.866V281.857H329.773V291.611Z" fill="white"/>
<path d="M36.5891 165.105H12.6828V189.8H0.231644V129.37H39.5773V139.456H12.6828V155.061H36.5891V165.105ZM72.9465 177.349H51.1154L46.965 189.8H33.7253L56.2204 129.37H67.7585L90.3781 189.8H77.1384L72.9465 177.349ZM54.4772 167.263H69.5847L61.9895 144.644L54.4772 167.263ZM115.114 174.817L128.811 129.37H142.673L121.631 189.8H108.64L87.6804 129.37H101.501L115.114 174.817ZM197.458 160.955C197.458 166.903 196.407 172.119 194.304 176.602C192.201 181.084 189.185 184.543 185.256 186.978C181.355 189.412 176.872 190.63 171.809 190.63C166.801 190.63 162.332 189.426 158.403 187.019C154.474 184.612 151.43 181.181 149.272 176.726C147.114 172.244 146.021 167.097 145.993 161.287V158.298C145.993 152.349 147.059 147.12 149.189 142.61C151.347 138.072 154.377 134.6 158.279 132.192C162.208 129.757 166.69 128.54 171.726 128.54C176.762 128.54 181.23 129.757 185.132 132.192C189.061 134.6 192.09 138.072 194.221 142.61C196.379 147.12 197.458 152.336 197.458 158.257V160.955ZM184.841 158.215C184.841 151.879 183.707 147.065 181.438 143.772C179.169 140.479 175.932 138.833 171.726 138.833C167.548 138.833 164.324 140.465 162.055 143.73C159.786 146.968 158.638 151.727 158.611 158.008V160.955C158.611 167.125 159.745 171.912 162.014 175.315C164.283 178.718 167.548 180.42 171.809 180.42C175.987 180.42 179.196 178.787 181.438 175.522C183.679 172.23 184.813 167.443 184.841 161.162V158.215ZM228.877 167.678H218.957V189.8H206.506V129.37H228.96C236.098 129.37 241.605 130.961 245.478 134.143C249.352 137.325 251.289 141.821 251.289 147.632C251.289 151.755 250.39 155.199 248.591 157.966C246.82 160.706 244.122 162.891 240.498 164.524L253.571 189.219V189.8H240.207L228.877 167.678ZM218.957 157.593H229.001C232.128 157.593 234.549 156.804 236.264 155.227C237.98 153.622 238.838 151.423 238.838 148.628C238.838 145.778 238.021 143.537 236.389 141.904C234.784 140.272 232.308 139.456 228.96 139.456H218.957V157.593ZM274.033 189.8H261.582V129.37H274.033V189.8ZM329.856 139.456H311.345V189.8H298.894V139.456H280.632V129.37H329.856V139.456ZM373.352 163.611H349.445V179.797H377.502V189.8H336.994V129.37H377.419V139.456H349.445V153.857H373.352V163.611Z" fill="#FFEE2E"/>
</svg>
