<svg width="125" height="106" viewBox="0 0 125 106" fill="none" xmlns="http://www.w3.org/2000/svg">
<path d="M30.8641 15.3818L33.5438 1.21777H37.6317L33.2157 21.124H29.0868L25.8465 7.80762L22.6063 21.124H18.4774L14.0614 1.21777H18.1493L20.8426 15.3545L24.1239 1.21777H27.5965L30.8641 15.3818ZM50.4969 17.0225H43.3055L41.9383 21.124H37.577L44.9872 1.21777H48.788L56.2391 21.124H51.8778L50.4969 17.0225ZM44.413 13.7002H49.3895L46.8876 6.24902L44.413 13.7002ZM71.4423 4.54004H65.3446V21.124H61.243V4.54004H55.2274V1.21777H71.4423V4.54004ZM89.038 14.4932C88.883 16.6351 88.09 18.3213 86.659 19.5518C85.2372 20.7822 83.3596 21.3975 81.0262 21.3975C78.4742 21.3975 76.4644 20.5407 74.9969 18.8271C73.5386 17.1045 72.8094 14.7438 72.8094 11.7451V10.5283C72.8094 8.61426 73.1467 6.92806 73.8212 5.46973C74.4956 4.01139 75.4572 2.89486 76.7059 2.12012C77.9637 1.33626 79.4221 0.944336 81.0809 0.944336C83.3778 0.944336 85.2281 1.55957 86.6317 2.79004C88.0354 4.02051 88.8465 5.74772 89.0653 7.97168H84.9637C84.8635 6.68652 84.5035 5.75684 83.8837 5.18262C83.273 4.59928 82.3387 4.30762 81.0809 4.30762C79.7137 4.30762 78.6883 4.7998 78.0048 5.78418C77.3303 6.75944 76.9839 8.27702 76.9657 10.3369V11.8408C76.9657 13.9919 77.2893 15.5641 77.9364 16.5576C78.5926 17.5511 79.6226 18.0479 81.0262 18.0479C82.2932 18.0479 83.2365 17.7607 83.8563 17.1865C84.4852 16.6032 84.8452 15.7054 84.9364 14.4932H89.038ZM107.932 21.124H103.831V12.5928H95.8329V21.124H91.7313V1.21777H95.8329V9.28418H103.831V1.21777H107.932V21.124ZM34.036 31.1865L38.1786 22.2178H42.663L36.1278 34.9053V42.124H31.9579V34.9053L25.4227 22.2178H29.9208L34.036 31.1865ZM60.4227 32.6221C60.4227 34.5817 60.0764 36.2998 59.3837 37.7764C58.691 39.2529 57.6975 40.3923 56.4032 41.1943C55.118 41.9964 53.6415 42.3975 51.9735 42.3975C50.3238 42.3975 48.8518 42.001 47.5575 41.208C46.2632 40.415 45.2606 39.2848 44.5497 37.8174C43.8387 36.3408 43.4787 34.6455 43.4696 32.7314V31.7471C43.4696 29.7874 43.8205 28.0648 44.5223 26.5791C45.2333 25.0843 46.2313 23.9404 47.5165 23.1475C48.8107 22.3454 50.2873 21.9443 51.9462 21.9443C53.605 21.9443 55.077 22.3454 56.3622 23.1475C57.6564 23.9404 58.6545 25.0843 59.3563 26.5791C60.0673 28.0648 60.4227 29.7829 60.4227 31.7334V32.6221ZM56.2665 31.7197C56.2665 29.6325 55.8928 28.0465 55.1454 26.9619C54.398 25.8773 53.3316 25.335 51.9462 25.335C50.5699 25.335 49.508 25.8727 48.7606 26.9482C48.0132 28.0146 47.635 29.5824 47.6258 31.6514V32.6221C47.6258 34.6546 47.9995 36.2314 48.7469 37.3525C49.4943 38.4736 50.5699 39.0342 51.9735 39.0342C53.3498 39.0342 54.4071 38.4964 55.1454 37.4209C55.8837 36.3363 56.2574 34.7594 56.2665 32.6904V31.7197ZM78.4696 22.2178V35.3291C78.4696 37.5075 77.786 39.2301 76.4188 40.4971C75.0607 41.764 73.2014 42.3975 70.8407 42.3975C68.5165 42.3975 66.6708 41.7822 65.3036 40.5518C63.9364 39.3213 63.2391 37.6305 63.2118 35.4795V22.2178H67.3133V35.3564C67.3133 36.6598 67.6232 37.6123 68.243 38.2139C68.8719 38.8063 69.7378 39.1025 70.8407 39.1025C73.1467 39.1025 74.3179 37.8903 74.3544 35.4658V22.2178H78.4696ZM89.202 34.8369H85.9344V42.124H81.8329V22.2178H89.2294C91.5809 22.2178 93.3947 22.7419 94.6708 23.79C95.9468 24.8382 96.5848 26.3193 96.5848 28.2334C96.5848 29.5915 96.2886 30.7262 95.6962 31.6377C95.1128 32.54 94.2242 33.2601 93.0301 33.7979L97.3368 41.9326V42.124H92.9344L89.202 34.8369ZM85.9344 31.5146H89.243C90.273 31.5146 91.0705 31.2549 91.6356 30.7354C92.2007 30.2067 92.4833 29.4821 92.4833 28.5615C92.4833 27.6227 92.2144 26.8844 91.6766 26.3467C91.148 25.8089 90.3322 25.54 89.2294 25.54H85.9344V31.5146ZM21.8954 80.0225H14.704L13.3368 84.124H8.97546L16.3856 64.2178H20.1864L27.6376 84.124H23.2762L21.8954 80.0225ZM15.8114 76.7002H20.788L18.286 69.249L15.8114 76.7002ZM45.6844 84.124H41.5829L33.5985 71.0264V84.124H29.4969V64.2178H33.5985L41.5965 77.3428V64.2178H45.6844V84.124ZM53.6278 84.124H49.5262V64.2178H53.6278V84.124ZM62.8016 64.2178L67.9149 78.6553L73.0008 64.2178H78.3876V84.124H74.2723V78.6826L74.6825 69.29L69.3094 84.124H66.493L61.1337 69.3037L61.5438 78.6826V84.124H57.4423V64.2178H62.8016ZM93.454 80.0225H86.2626L84.8954 84.124H80.534L87.9442 64.2178H91.745L99.1962 84.124H94.8348L93.454 80.0225ZM87.37 76.7002H92.3465L89.8446 69.249L87.37 76.7002ZM105.157 80.8291H113.866V84.124H101.056V64.2178H105.157V80.8291ZM30.8094 95.6221C30.8094 97.5817 30.4631 99.2998 29.7704 100.776C29.0777 102.253 28.0842 103.392 26.7899 104.194C25.5048 104.996 24.0282 105.397 22.3602 105.397C20.7105 105.397 19.2385 105.001 17.9442 104.208C16.6499 103.415 15.6473 102.285 14.9364 100.817C14.2255 99.3408 13.8654 97.6455 13.8563 95.7314V94.7471C13.8563 92.7874 14.2072 91.0648 14.909 89.5791C15.62 88.0843 16.618 86.9404 17.9032 86.1475C19.1975 85.3454 20.674 84.9443 22.3329 84.9443C23.9917 84.9443 25.4637 85.3454 26.7489 86.1475C28.0432 86.9404 29.0412 88.0843 29.743 89.5791C30.454 91.0648 30.8094 92.7829 30.8094 94.7334V95.6221ZM26.6532 94.7197C26.6532 92.6325 26.2795 91.0465 25.5321 89.9619C24.7847 88.8773 23.7183 88.335 22.3329 88.335C20.9566 88.335 19.8947 88.8727 19.1473 89.9482C18.3999 91.0146 18.0217 92.5824 18.0126 94.6514V95.6221C18.0126 97.6546 18.3863 99.2314 19.1337 100.353C19.8811 101.474 20.9566 102.034 22.3602 102.034C23.7365 102.034 24.7938 101.496 25.5321 100.421C26.2704 99.3363 26.6441 97.7594 26.6532 95.6904V94.7197ZM49.9774 105.124H45.8758L37.8915 92.0264V105.124H33.7899V85.2178H37.8915L45.8895 98.3428V85.2178H49.9774V105.124ZM57.661 101.829H66.37V105.124H53.5594V85.2178H57.661V101.829ZM73.0965 105.124H68.995V85.2178H73.0965V105.124ZM93.0985 105.124H88.9969L81.0126 92.0264V105.124H76.911V85.2178H81.0126L89.0106 98.3428V85.2178H93.0985V105.124ZM108.657 96.4971H100.782V101.829H110.024V105.124H96.6805V85.2178H109.997V88.54H100.782V93.2842H108.657V96.4971Z" fill="white"/>
<path d="M12.079 54.9893H4.20397V63.124H0.102409V43.2178H13.0633V46.54H4.20397V51.6807H12.079V54.9893ZM24.0555 59.0225H16.8641L15.4969 63.124H11.1356L18.5458 43.2178H22.3465L29.7977 63.124H25.4364L24.0555 59.0225ZM17.9715 55.7002H22.9481L20.4462 48.249L17.9715 55.7002ZM37.9462 58.1885L42.4579 43.2178H47.0243L40.0926 63.124H35.8133L28.909 43.2178H33.4618L37.9462 58.1885ZM65.0712 53.6221C65.0712 55.5817 64.7248 57.2998 64.0321 58.7764C63.3394 60.2529 62.3459 61.3923 61.0516 62.1943C59.7665 62.9964 58.2899 63.3975 56.6219 63.3975C54.9722 63.3975 53.5002 63.001 52.2059 62.208C50.9117 61.415 49.909 60.2848 49.1981 58.8174C48.4872 57.3408 48.1271 55.6455 48.118 53.7314V52.7471C48.118 50.7874 48.4689 49.0648 49.1708 47.5791C49.8817 46.0843 50.8798 44.9404 52.1649 44.1475C53.4592 43.3454 54.9357 42.9443 56.5946 42.9443C58.2535 42.9443 59.7255 43.3454 61.0106 44.1475C62.3049 44.9404 63.3029 46.0843 64.0048 47.5791C64.7157 49.0648 65.0712 50.7829 65.0712 52.7334V53.6221ZM60.9149 52.7197C60.9149 50.6325 60.5412 49.0465 59.7938 47.9619C59.0464 46.8773 57.98 46.335 56.5946 46.335C55.2183 46.335 54.1564 46.8727 53.409 47.9482C52.6617 49.0146 52.2834 50.5824 52.2743 52.6514V53.6221C52.2743 55.6546 52.648 57.2314 53.3954 58.3525C54.1428 59.4736 55.2183 60.0342 56.6219 60.0342C57.9982 60.0342 59.0555 59.4964 59.7938 58.4209C60.5321 57.3363 60.9058 55.7594 60.9149 53.6904V52.7197ZM75.4208 55.8369H72.1532V63.124H68.0516V43.2178H75.4481C77.7997 43.2178 79.6135 43.7419 80.8895 44.79C82.1656 45.8382 82.8036 47.3193 82.8036 49.2334C82.8036 50.5915 82.5074 51.7262 81.9149 52.6377C81.3316 53.54 80.4429 54.2601 79.2489 54.7979L83.5555 62.9326V63.124H79.1532L75.4208 55.8369ZM72.1532 52.5146H75.4618C76.4917 52.5146 77.2893 52.2549 77.8544 51.7354C78.4195 51.2067 78.702 50.4821 78.702 49.5615C78.702 48.6227 78.4331 47.8844 77.8954 47.3467C77.3667 46.8089 76.551 46.54 75.4481 46.54H72.1532V52.5146ZM90.2958 63.124H86.1942V43.2178H90.2958V63.124ZM108.684 46.54H102.587V63.124H98.4852V46.54H92.4696V43.2178H108.684V46.54ZM123.013 54.4971H115.138V59.8291H124.38V63.124H111.036V43.2178H124.352V46.54H115.138V51.2842H123.013V54.4971Z" fill="#FFEE2E"/>
</svg>
