<svg width="242" height="205" viewBox="0 0 242 205" fill="none" xmlns="http://www.w3.org/2000/svg">
<path d="M60.1811 28.9114L65.3767 1.44856H73.3028L64.7405 40.0449H56.735L50.4524 14.2257L44.1699 40.0449H36.1644L27.6021 1.44856H35.5282L40.7503 28.8583L47.1124 1.44856H53.8455L60.1811 28.9114ZM98.2473 32.0924H84.3038L81.6529 40.0449H73.1967L87.5643 1.44856H94.9337L109.381 40.0449H100.925L98.2473 32.0924ZM86.451 25.6508H96.1001L91.249 11.2037L86.451 25.6508ZM138.858 7.89012H127.035V40.0449H119.083V7.89012H107.419V1.44856H138.858V7.89012ZM172.975 27.1883C172.674 31.3413 171.137 34.6107 168.362 36.9964C165.605 39.3822 161.965 40.5751 157.441 40.5751C152.492 40.5751 148.596 38.9139 145.75 35.5915C142.923 32.2514 141.509 27.6743 141.509 21.8601V19.5008C141.509 15.7897 142.163 12.5203 143.471 9.6927C144.778 6.86513 146.643 4.70027 149.064 3.19812C151.503 1.6783 154.33 0.918391 157.547 0.918391C162 0.918391 165.588 2.11127 168.309 4.49704C171.031 6.8828 172.604 10.2317 173.028 14.5438H165.075C164.881 12.052 164.183 10.2494 162.981 9.13602C161.797 8.00499 159.986 7.43948 157.547 7.43948C154.896 7.43948 152.908 8.39379 151.582 10.3024C150.275 12.1933 149.603 15.1358 149.568 19.1297V22.0457C149.568 26.2163 150.195 29.2648 151.45 31.1911C152.722 33.1174 154.719 34.0805 157.441 34.0805C159.897 34.0805 161.726 33.5238 162.928 32.4105C164.147 31.2794 164.845 29.5387 165.022 27.1883H172.975ZM209.609 40.0449H201.657V23.5036H186.149V40.0449H178.197V1.44856H186.149V17.0886H201.657V1.44856H209.609V40.0449ZM66.331 59.8381L74.3631 42.4486H83.0579L70.3868 67.0484V81.0449H62.3017V67.0484L49.6307 42.4486H58.352L66.331 59.8381ZM117.492 62.6215C117.492 66.4211 116.821 69.7523 115.478 72.6152C114.135 75.4781 112.208 77.6872 109.699 79.2423C107.207 80.7975 104.344 81.5751 101.11 81.5751C97.9115 81.5751 95.0574 80.8063 92.5479 79.2689C90.0385 77.7314 88.0945 75.54 86.7161 72.6947C85.3376 69.8318 84.6396 66.5448 84.6219 62.8336V60.925C84.6219 57.1254 85.3023 53.7854 86.663 50.9048C88.0415 48.0065 89.9766 45.7886 92.4684 44.2511C94.9779 42.696 97.8408 41.9184 101.057 41.9184C104.274 41.9184 107.128 42.696 109.619 44.2511C112.129 45.7886 114.064 48.0065 115.425 50.9048C116.803 53.7854 117.492 57.1166 117.492 60.8985V62.6215ZM109.434 60.872C109.434 56.825 108.709 53.75 107.26 51.647C105.811 49.544 103.743 48.4925 101.057 48.4925C98.3886 48.4925 96.3298 49.5352 94.8807 51.6205C93.4315 53.6882 92.6981 56.7278 92.6805 60.7394V62.6215C92.6805 66.5625 93.405 69.6198 94.8542 71.7935C96.3033 73.9672 98.3886 75.054 101.11 75.054C103.779 75.054 105.829 74.0113 107.26 71.926C108.692 69.823 109.416 66.7657 109.434 62.7541V60.872ZM152.484 42.4486V67.8702C152.484 72.0939 151.158 75.434 148.507 77.8904C145.874 80.3469 142.269 81.5751 137.692 81.5751C133.185 81.5751 129.607 80.3822 126.956 77.9964C124.305 75.6107 122.953 72.3325 122.9 68.1618V42.4486H130.853V67.9232C130.853 70.4504 131.454 72.2971 132.655 73.4635C133.875 74.6122 135.554 75.1865 137.692 75.1865C142.163 75.1865 144.434 72.8361 144.505 68.1353V42.4486H152.484ZM173.293 66.9159H166.957V81.0449H159.005V42.4486H173.346C177.905 42.4486 181.422 43.4647 183.896 45.497C186.37 47.5294 187.607 50.4011 187.607 54.1123C187.607 56.7455 187.033 58.9457 185.884 60.7129C184.753 62.4625 183.03 63.8586 180.715 64.9013L189.065 80.6738V81.0449H180.53L173.293 66.9159ZM166.957 60.4743H173.372C175.369 60.4743 176.916 59.9707 178.011 58.9634C179.107 57.9384 179.655 56.5334 179.655 54.7485C179.655 52.9283 179.133 51.4968 178.091 50.4541C177.066 49.4115 175.484 48.8901 173.346 48.8901H166.957V60.4743ZM42.7915 155.092H28.848L26.1972 163.045H17.741L32.1086 124.449H39.4779L53.9251 163.045H45.4689L42.7915 155.092ZM30.9952 148.651H40.6443L35.7933 134.204L30.9952 148.651ZM88.9163 163.045H80.9637L65.4828 137.65V163.045H57.5302V124.449H65.4828L80.9902 149.897V124.449H88.9163V163.045ZM104.318 163.045H96.3652V124.449H104.318V163.045ZM122.105 124.449L132.019 152.442L141.88 124.449H152.325V163.045H144.346V152.495L145.141 134.283L134.723 163.045H129.262L118.871 134.31L119.666 152.495V163.045H111.714V124.449H122.105ZM181.537 155.092H167.593L164.943 163.045H156.486L170.854 124.449H178.223L192.671 163.045H184.214L181.537 155.092ZM169.741 148.651H179.39L174.539 134.204L169.741 148.651ZM204.228 156.656H221.114V163.045H196.276V124.449H204.228V156.656ZM60.075 185.622C60.075 189.421 59.4035 192.752 58.0604 195.615C56.7173 198.478 54.791 200.687 52.2815 202.242C49.7897 203.798 46.9268 204.575 43.6928 204.575C40.4941 204.575 37.64 203.806 35.1305 202.269C32.6211 200.731 30.6771 198.54 29.2987 195.695C27.9202 192.832 27.2222 189.545 27.2045 185.834V183.925C27.2045 180.125 27.8849 176.785 29.2457 173.905C30.6241 171.007 32.5592 168.789 35.051 167.251C37.5605 165.696 40.4234 164.918 43.6398 164.918C46.8561 164.918 49.7102 165.696 52.202 167.251C54.7115 168.789 56.6466 171.007 58.0074 173.905C59.3858 176.785 60.075 180.117 60.075 183.898V185.622ZM52.0165 183.872C52.0165 179.825 51.2919 176.75 49.8428 174.647C48.3936 172.544 46.326 171.492 43.6398 171.492C40.9712 171.492 38.9124 172.535 37.4633 174.62C36.0142 176.688 35.2808 179.728 35.2631 183.739V185.622C35.2631 189.562 35.9877 192.62 37.4368 194.793C38.8859 196.967 40.9712 198.054 43.6928 198.054C46.3613 198.054 48.4113 197.011 49.8428 194.926C51.2742 192.823 51.9988 189.766 52.0165 185.754V183.872ZM97.2399 204.045H89.2874L73.8064 178.65V204.045H65.8539V165.449H73.8064L89.3139 190.897V165.449H97.2399V204.045ZM112.138 197.656H129.024V204.045H104.185V165.449H112.138V197.656ZM142.066 204.045H134.113V165.449H142.066V204.045ZM180.848 204.045H172.895L157.414 178.65V204.045H149.462V165.449H157.414L172.922 190.897V165.449H180.848V204.045ZM211.014 187.318H195.745V197.656H213.665V204.045H187.793V165.449H213.612V171.89H195.745V181.089H211.014V187.318Z" fill="white"/>
<path d="M23.7584 106.272H8.48951V122.045H0.536962V83.4486H25.667V89.8901H8.48951V99.8573H23.7584V106.272ZM46.9798 114.092H33.0364L30.3855 122.045H21.9293L36.2969 83.4486H43.6663L58.1134 122.045H49.6572L46.9798 114.092ZM35.1836 107.651H44.8326L39.9816 93.2037L35.1836 107.651ZM73.9125 112.475L82.6603 83.4486H91.5141L78.0743 122.045H69.7771L56.3903 83.4486H65.2177L73.9125 112.475ZM126.505 103.622C126.505 107.421 125.834 110.752 124.491 113.615C123.148 116.478 121.221 118.687 118.712 120.242C116.22 121.798 113.357 122.575 110.123 122.575C106.924 122.575 104.07 121.806 101.561 120.269C99.0513 118.731 97.1074 116.54 95.7289 113.695C94.3505 110.832 93.6525 107.545 93.6348 103.834V101.925C93.6348 98.1254 94.3152 94.7854 95.6759 91.9048C97.0544 89.0065 98.9895 86.7886 101.481 85.2511C103.991 83.696 106.854 82.9184 110.07 82.9184C113.286 82.9184 116.14 83.696 118.632 85.2511C121.142 86.7886 123.077 89.0065 124.438 91.9048C125.816 94.7854 126.505 98.1166 126.505 101.898V103.622ZM118.447 101.872C118.447 97.825 117.722 94.75 116.273 92.647C114.824 90.544 112.756 89.4925 110.07 89.4925C107.402 89.4925 105.343 90.5352 103.894 92.6205C102.444 94.6882 101.711 97.7278 101.693 101.739V103.622C101.693 107.562 102.418 110.62 103.867 112.793C105.316 114.967 107.402 116.054 110.123 116.054C112.792 116.054 114.842 115.011 116.273 112.926C117.704 110.823 118.429 107.766 118.447 103.754V101.872ZM146.572 107.916H140.237V122.045H132.284V83.4486H146.625C151.185 83.4486 154.701 84.4647 157.176 86.497C159.65 88.5294 160.887 91.4011 160.887 95.1123C160.887 97.7455 160.312 99.9457 159.164 101.713C158.033 103.462 156.31 104.859 153.995 105.901L162.345 121.674V122.045H153.809L146.572 107.916ZM140.237 101.474H146.652C148.649 101.474 150.195 100.971 151.291 99.9634C152.386 98.9384 152.934 97.5334 152.934 95.7485C152.934 93.9283 152.413 92.4968 151.37 91.4541C150.345 90.4115 148.764 89.8901 146.625 89.8901H140.237V101.474ZM175.413 122.045H167.461V83.4486H175.413V122.045ZM211.067 89.8901H199.245V122.045H191.292V89.8901H179.628V83.4486H211.067V89.8901ZM238.848 105.318H223.579V115.656H241.499V122.045H215.627V83.4486H241.446V89.8901H223.579V99.0886H238.848V105.318Z" fill="#FFEE2E"/>
</svg>
